<svg width="23" height="24" viewBox="0 0 23 24" fill="none" xmlns="http://www.w3.org/2000/svg">
<path d="M8.83334 7.00001C9.66334 7.00001 10.3333 7.67001 10.3333 8.50001C10.3333 9.33001 9.66334 10 8.83334 10C8.00334 10 7.33334 9.33001 7.33334 8.50001C7.33334 7.67001 8.00334 7.00001 8.83334 7.00001ZM13.8333 14C14.6633 14 15.3333 14.67 15.3333 15.5C15.3333 16.33 14.6633 17 13.8333 17C13.0033 17 12.3333 16.33 12.3333 15.5C12.3333 14.67 13.0033 14 13.8333 14ZM7.74334 17L6.33334 15.59L14.9233 7.00001L16.3333 8.41001L7.74334 17ZM17.9833 2.85001L18.5933 6.71001L22.1033 8.50001L20.3333 12L22.1133 15.5L18.5733 17.29L17.9633 21.15L14.0733 20.54L11.3033 23.31L8.52334 20.5L4.66334 21.14L4.04334 17.25L0.553343 15.47L2.33334 11.97L0.563343 8.50001L4.07334 6.69001L4.68334 2.87001L8.55334 3.50001L11.3333 0.695007L14.0933 3.46001L17.9833 2.85001ZM19.4333 9.37001L16.8333 8.00001L16.3333 5.11001L13.4333 5.53001L11.3333 3.50001L9.23334 5.53001L6.33334 5.11001L5.83334 8.00001L3.23334 9.37001L4.53334 12L3.23334 14.63L5.83334 16L6.33334 18.89L9.23334 18.47L11.3333 20.5L13.4333 18.47L16.3333 18.89L16.8333 16L19.4333 14.63L18.1333 12L19.4333 9.37001Z" fill="#B8B8B8"/>
</svg>
