<svg width="17" height="20" viewBox="0 0 17 20" fill="none" xmlns="http://www.w3.org/2000/svg">
<path d="M2.66667 0C2.13624 0 1.62753 0.210714 1.25246 0.585786C0.877385 0.960859 0.666672 1.46957 0.666672 2V18C0.666672 18.5304 0.877385 19.0391 1.25246 19.4142C1.62753 19.7893 2.13624 20 2.66667 20H14.6667C15.1971 20 15.7058 19.7893 16.0809 19.4142C16.456 19.0391 16.6667 18.5304 16.6667 18V6L10.6667 0H2.66667ZM2.66667 2H9.66667V7H14.6667V18H2.66667V2ZM4.66667 10V12H12.6667V10H4.66667ZM4.66667 14V16H9.66667V14H4.66667Z" fill="#B8B8B8"/>
</svg>
